<?xml version="1.0" standalone="no"?><!DOCTYPE svg PUBLIC "-//W3C//DTD SVG 1.1//EN" "http://www.w3.org/Graphics/SVG/1.1/DTD/svg11.dtd"><svg class="icon" width="200px" height="200.00px" viewBox="0 0 1024 1024" version="1.1" xmlns="http://www.w3.org/2000/svg"><path d="M810.076149 0H213.981451a127.734578 127.734578 0 0 0-127.734578 131.566616V936.72024a135.398653 135.398653 0 0 0 17.031277 65.570417 42.578193 42.578193 0 0 0 36.617246 19.585969 42.578193 42.578193 0 0 0 20.01175-5.109384 39.597719 39.597719 0 0 0 23.418006-7.664074L512.0288 766.407469l333.813031 248.656646a42.578193 42.578193 0 0 0 25.121134 8.515638h5.109383a42.578193 42.578193 0 0 0 42.578193-20.437532 135.398653 135.398653 0 0 0 17.031277-65.570417V131.566616A129.863488 129.863488 0 0 0 810.076149 0zM486.481884 677.419046L171.403258 912.45067V131.566616A44.707102 44.707102 0 0 1 213.981451 85.156385h596.094698a44.707102 44.707102 0 0 1 42.578193 46.410231v780.884054l-315.078626-235.031624a42.578193 42.578193 0 0 0-51.093832 0z" fill="#333333" /></svg>