<?xml version="1.0" standalone="no"?><!DOCTYPE svg PUBLIC "-//W3C//DTD SVG 1.1//EN" "http://www.w3.org/Graphics/SVG/1.1/DTD/svg11.dtd"><svg class="icon" width="200px" height="200.00px" viewBox="0 0 1024 1024" version="1.1" xmlns="http://www.w3.org/2000/svg"><path d="M512 0a512 512 0 1 0 512 512A512 512 0 0 0 512 0z m0 930.909091a418.909091 418.909091 0 1 1 418.909091-418.909091 418.909091 418.909091 0 0 1-418.909091 418.909091z" fill="#333333" /><path d="M395.636364 327.214545a46.545455 46.545455 0 0 0-46.545455 46.545455v276.014545a46.545455 46.545455 0 0 0 93.090909 0V373.76a46.545455 46.545455 0 0 0-46.545454-46.545455zM628.363636 327.214545a46.545455 46.545455 0 0 0-46.545454 46.545455v276.014545a46.545455 46.545455 0 0 0 93.090909 0V373.76a46.545455 46.545455 0 0 0-46.545455-46.545455z" fill="#333333" /></svg>