<?xml version="1.0" standalone="no"?><!DOCTYPE svg PUBLIC "-//W3C//DTD SVG 1.1//EN" "http://www.w3.org/Graphics/SVG/1.1/DTD/svg11.dtd"><svg class="icon" width="200px" height="174.30px" viewBox="0 0 1175 1024" version="1.1" xmlns="http://www.w3.org/2000/svg"><path d="M625.98912 493.226667V42.666667a42.666667 42.666667 0 0 0-85.333333 0v450.56a180.906667 180.906667 0 0 0 2.56 352.426666 45.653333 45.653333 0 0 0-2.56 13.226667V981.333333a42.666667 42.666667 0 0 0 85.333333 0v-122.453333a34.986667 34.986667 0 0 0-2.986667-13.226667 180.906667 180.906667 0 0 0 2.986667-352.426666z m-42.666667 271.786666a96 96 0 1 1 96-96 96 96 0 0 1-96 96zM224.922453 213.333333V42.666667a42.666667 42.666667 0 0 0-85.333333 0v170.666666a180.48 180.48 0 0 0 0 351.573334V981.333333a42.666667 42.666667 0 0 0 85.333333 0v-416.426666a180.48 180.48 0 0 0 0-351.573334z m-42.666666 271.786667a96 96 0 1 1 96-96 96 96 0 0 1-95.146667 96zM1175.10912 389.12A180.906667 180.906667 0 0 0 1035.58912 213.333333V42.666667a42.666667 42.666667 0 0 0-85.333333 0v170.666666a180.48 180.48 0 0 0 0 351.573334V981.333333a42.666667 42.666667 0 0 0 85.333333 0v-416.426666a181.333333 181.333333 0 0 0 139.52-175.786667z m-181.333333 96a96 96 0 1 1 96-96 96 96 0 0 1-96 96z" fill="#333333" /></svg>