<?xml version="1.0" standalone="no"?><!DOCTYPE svg PUBLIC "-//W3C//DTD SVG 1.1//EN" "http://www.w3.org/Graphics/SVG/1.1/DTD/svg11.dtd"><svg class="icon" width="200px" height="200.00px" viewBox="0 0 1024 1024" version="1.1" xmlns="http://www.w3.org/2000/svg"><path d="M512 0a512 512 0 1 0 512 512A512 512 0 0 0 512 0z m0 938.666667a426.666667 426.666667 0 1 1 426.666667-426.666667 426.666667 426.666667 0 0 1-426.666667 426.666667z" fill="#333333" /><path d="M694.186667 350.72l-231.68 235.946667-136.106667-101.973334a42.666667 42.666667 0 0 0-59.733333 8.96 42.666667 42.666667 0 0 0 8.96 59.733334l168.106666 124.16a42.666667 42.666667 0 0 0 25.6 8.106666 42.666667 42.666667 0 0 0 30.293334-12.373333l256-262.4a42.837333 42.837333 0 1 0-61.013334-60.16z" fill="#333333" /></svg>