<?xml version="1.0" standalone="no"?><!DOCTYPE svg PUBLIC "-//W3C//DTD SVG 1.1//EN" "http://www.w3.org/Graphics/SVG/1.1/DTD/svg11.dtd"><svg class="icon" width="200px" height="171.67px" viewBox="0 0 1193 1024" version="1.1" xmlns="http://www.w3.org/2000/svg"><path d="M595.629764 0A406.068966 406.068966 0 0 0 190.490018 405.604356c0 336.842105 362.860254 597.488203 378.656987 608.174228a46.46098 46.46098 0 0 0 53.430127 0c15.332123-10.686025 378.656987-271.332123 378.656988-608.174228a406.068966 406.068966 0 0 0-405.604356-405.604356z m0 917.139746c-79.912886-64.116152-312.217786-270.867514-312.217786-511.07078a312.682396 312.682396 0 1 1 624.900182 0c0 241.597096-232.3049 448.813067-312.682396 512.929219z" fill="#333333" /><path d="M595.629764 232.3049A194.671506 194.671506 0 1 0 789.836661 426.976407a194.671506 194.671506 0 0 0-194.206897-194.671507z m0 295.956443A101.749546 101.749546 0 1 1 696.914701 426.976407a101.749546 101.749546 0 0 1-101.284937 103.143375zM367.506352 929.219601H141.705989l92.92196-118.01089h26.947369a46.46098 46.46098 0 0 0 0-92.92196H211.397459a46.46098 46.46098 0 0 0-36.704174 17.655173L10.221416 947.339383a46.46098 46.46098 0 0 0-5.110708 46.46098 46.46098 46.46098 0 0 0 41.350272 26.018149h321.045372a46.46098 46.46098 0 0 0 0-92.92196zM1181.502722 949.197822l-163.542649-211.397459a46.46098 46.46098 0 0 0-36.239565-17.655172h-51.107078a46.46098 46.46098 0 0 0 0 92.92196h28.341198l92.92196 118.010889h-241.597096a46.46098 46.46098 0 0 0 0 92.92196h334.519056a46.46098 46.46098 0 0 0 36.704174-74.802178z" fill="#333333" /></svg>