<?xml version="1.0" standalone="no"?><!DOCTYPE svg PUBLIC "-//W3C//DTD SVG 1.1//EN" "http://www.w3.org/Graphics/SVG/1.1/DTD/svg11.dtd"><svg class="icon" width="200px" height="200.00px" viewBox="0 0 1024 1024" version="1.1" xmlns="http://www.w3.org/2000/svg"><path d="M511.968758 0A405.728725 405.728725 0 0 0 106.666667 405.302091c0 338.320588 365.198516 599.847095 380.557332 610.939574a42.663378 42.663378 0 0 0 49.062884 0C552.072333 1005.149186 917.270849 743.622679 917.270849 405.302091A405.728725 405.728725 0 0 0 511.968758 0z m0 927.501838C433.041509 864.786673 191.993423 652.32305 191.993423 405.302091a319.975335 319.975335 0 1 1 639.95067 0c0 247.020959-241.048086 459.484581-319.975335 522.199747z" fill="#333333" /><path d="M511.968758 234.648579A191.985201 191.985201 0 1 0 703.953959 426.63378a192.411835 192.411835 0 0 0-191.985201-191.985201z m0 298.643646A106.658445 106.658445 0 1 1 618.627203 426.63378a106.658445 106.658445 0 0 1-106.658445 106.658445z" fill="#333333" /></svg>