<?xml version="1.0" standalone="no"?><!DOCTYPE svg PUBLIC "-//W3C//DTD SVG 1.1//EN" "http://www.w3.org/Graphics/SVG/1.1/DTD/svg11.dtd"><svg class="icon" width="200px" height="183.35px" viewBox="0 0 1117 1024" version="1.1" xmlns="http://www.w3.org/2000/svg"><path d="M1094.749091 384c-21.410909-27.461818-66.56-60.509091-160.581818-60.509091h-88.436364a389.12 389.12 0 0 0 40.029091-168.96c0-42.356364 0-154.530909-139.636364-154.530909-87.970909 0-114.036364 52.596364-139.636363 103.330909a494.312727 494.312727 0 0 1-56.32 93.090909l-8.843637 10.705455a365.381818 365.381818 0 0 1-275.549091 114.967272h-125.672727a134.516364 134.516364 0 0 0-139.636363 127.534546v445.44a132.654545 132.654545 0 0 0 139.636363 127.534545H837.818182a134.050909 134.050909 0 0 0 133.12-95.883636l142.429091-448.232727a108.916364 108.916364 0 0 0-18.618182-94.487273z m-1000.261818 512V448.698182c0-17.221818 21.876364-32.116364 46.545454-32.116364h113.570909v516.189091H137.309091a40.96 40.96 0 0 1-44.218182-36.305454z m788.48 6.050909a43.752727 43.752727 0 0 1-43.752728 28.392727H346.298182V409.6a445.44 445.44 0 0 0 264.843636-139.636364c4.654545-5.12 8.378182-10.24 12.101818-14.894545a605.090909 605.090909 0 0 0 66.56-110.312727c23.738182-46.545455 26.530909-51.2 54.923637-51.2 39.563636 0 46.545455 4.189091 46.545454 61.44a271.36 271.36 0 0 1-68.887272 181.992727 46.545455 46.545455 0 0 0 32.581818 79.592727h178.734545a117.294545 117.294545 0 0 1 87.505455 24.669091 16.756364 16.756364 0 0 1 3.723636 13.498182z" fill="#333333" /></svg>