<?xml version="1.0" standalone="no"?><!DOCTYPE svg PUBLIC "-//W3C//DTD SVG 1.1//EN" "http://www.w3.org/Graphics/SVG/1.1/DTD/svg11.dtd"><svg class="icon" width="200px" height="200.00px" viewBox="0 0 1024 1024" version="1.1" xmlns="http://www.w3.org/2000/svg"><path d="M967.211518 797.744341l-80.789826-80.34835c-29.578789-30.020263-77.699504-20.749299-132.442337 27.81289a112.134512 112.134512 0 0 1-116.549256 19.866351L278.069892 406.156499a110.810088 110.810088 0 0 1 19.424876-116.549256 142.154775 142.154775 0 0 0 44.147446-88.294891 64.013796 64.013796 0 0 0-18.541927-44.147446L243.19341 75.050657a88.294891 88.294891 0 0 0-128.910541-13.685708A346.998922 346.998922 0 0 0 18.482912 313.446864c0 161.579651 84.321621 342.584178 225.593447 485.621901s328.015521 224.710498 485.621901 224.710498a348.323346 348.323346 0 0 0 252.081915-95.358483 78.140979 78.140979 0 0 0 21.190773-54.301358 105.07092 105.07092 0 0 0-35.75943-76.375081z m-662.211684-63.130847c-124.937271-124.937271-199.546454-282.543652-199.546454-421.16663a264.884673 264.884673 0 0 1 64.013796-183.653374s10.595387 9.712438 8.388015 7.063591l68.870015 68.870015a116.107782 116.107782 0 0 1-16.334555 20.7493 196.897607 196.897607 0 0 0-54.301358 139.064453 143.479198 143.479198 0 0 0 34.435007 101.9806l362.892003 362.450528c48.56219 48.56219 172.175038 49.003665 238.837681-17.658979a171.292089 171.292089 0 0 1 24.722569-17.658978l67.545592 67.545592a50.328088 50.328088 0 0 1 7.94654 9.712438c-132.883811 120.964001-407.922397 60.482-606.144428-137.298556zM429.054156 89.17784a477.675361 477.675361 0 0 1 477.675361 475.909463 44.147446 44.147446 0 1 0 88.294891 0A565.970252 565.970252 0 0 0 429.054156 0a44.147446 44.147446 0 1 0 0 88.294891z" fill="#333333" /><path d="M493.950901 197.780556a44.147446 44.147446 0 0 0 0 88.294891 250.757491 250.757491 0 0 1 250.757491 250.316017 44.147446 44.147446 0 1 0 88.294891 0 339.052382 339.052382 0 0 0-339.052382-338.610908z" fill="#333333" /></svg>