<?xml version="1.0" standalone="no"?><!DOCTYPE svg PUBLIC "-//W3C//DTD SVG 1.1//EN" "http://www.w3.org/Graphics/SVG/1.1/DTD/svg11.dtd"><svg class="icon" width="200px" height="200.00px" viewBox="0 0 1024 1024" version="1.1" xmlns="http://www.w3.org/2000/svg"><path d="M997.284422 96.928058l-230.275459-93.815928a42.643604 42.643604 0 0 0-31.982703 0L512.000213 93.943006 288.974167 3.11213a42.643604 42.643604 0 0 0-31.982703 0l-230.275459 93.815928a42.643604 42.643604 0 0 0-26.439035 39.658551v844.343351a42.643604 42.643604 0 0 0 18.763186 35.394191 42.643604 42.643604 0 0 0 40.084987 4.264361l213.218018-85.287207 213.218018 85.287207a45.20222 45.20222 0 0 0 16.204569 2.985052h17.910314a42.643604 42.643604 0 0 0 15.778133-2.985052l213.218018-85.287207 213.218018 85.287207a42.643604 42.643604 0 0 0 58.848173-39.658552V137.013045a42.643604 42.643604 0 0 0-23.453982-40.084987zM938.436249 917.817427l-170.574414-69.93551a42.643604 42.643604 0 0 0-31.982703 0l-180.382443 73.773434V418.460829a42.643604 42.643604 0 0 0-85.287207 0v503.194522l-180.382443-73.773434a42.643604 42.643604 0 0 0-31.982703 0l-170.574414 69.93551V165.58426l144.988252-58.848173v544.558818a42.643604 42.643604 0 0 0 85.287207 0V106.736087l170.574414 69.509074a42.643604 42.643604 0 0 0 25.159726 0 42.643604 42.643604 0 0 0 24.733291 0l170.574414-69.509074v544.558818a42.643604 42.643604 0 0 0 85.287207 0V106.736087l144.988252 58.848173z" fill="#333333" /></svg>