<?xml version="1.0" standalone="no"?><!DOCTYPE svg PUBLIC "-//W3C//DTD SVG 1.1//EN" "http://www.w3.org/Graphics/SVG/1.1/DTD/svg11.dtd"><svg class="icon" width="200px" height="199.80px" viewBox="0 0 1025 1024" version="1.1" xmlns="http://www.w3.org/2000/svg"><path d="M513.706667 0a512 512 0 1 0 512 512 512 512 0 0 0-512-512z m0 938.666667a426.666667 426.666667 0 1 1 426.666666-426.666667 426.666667 426.666667 0 0 1-426.666666 426.666667z" fill="#333333" /><path d="M573.866667 332.373333a42.666667 42.666667 0 0 0-60.16 0l-149.333334 149.333334a42.666667 42.666667 0 0 0 0 60.586666l149.333334 149.333334a42.666667 42.666667 0 0 0 60.16-60.586667L454.826667 512l119.04-119.04a42.666667 42.666667 0 0 0 0-60.586667z" fill="#333333" /></svg>