<?xml version="1.0" standalone="no"?><!DOCTYPE svg PUBLIC "-//W3C//DTD SVG 1.1//EN" "http://www.w3.org/Graphics/SVG/1.1/DTD/svg11.dtd"><svg class="icon" width="200px" height="200.00px" viewBox="0 0 1024 1024" version="1.1" xmlns="http://www.w3.org/2000/svg"><path d="M763.611429 668.734694a176.796735 176.796735 0 0 0-119.536327 46.811428L418.795102 593.502041a169.691429 169.691429 0 0 0 8.777143-144.613878l197.694694-161.332245a175.960816 175.960816 0 0 0 138.34449 67.709388 177.632653 177.632653 0 1 0-177.632653-177.632653 199.366531 199.366531 0 0 0 2.925714 31.764898l-208.979592 170.527347a177.214694 177.214694 0 1 0-117.86449 309.707755 173.453061 173.453061 0 0 0 100.310204-31.764898l234.893061 127.477551a172.199184 172.199184 0 0 0-11.284897 61.022041A177.632653 177.632653 0 1 0 763.611429 668.734694z m0-585.142857a94.040816 94.040816 0 1 1-94.040817 94.040816A94.040816 94.040816 0 0 1 763.611429 83.591837zM166.347755 512a94.040816 94.040816 0 1 1 95.712653 94.040816A94.040816 94.040816 0 0 1 166.347755 512zM763.611429 940.408163a94.040816 94.040816 0 1 1 94.040816-94.040816 94.040816 94.040816 0 0 1-94.040816 94.040816z" fill="#333333" /></svg>