<?xml version="1.0" standalone="no"?><!DOCTYPE svg PUBLIC "-//W3C//DTD SVG 1.1//EN" "http://www.w3.org/Graphics/SVG/1.1/DTD/svg11.dtd"><svg class="icon" width="200px" height="200.00px" viewBox="0 0 1024 1024" version="1.1" xmlns="http://www.w3.org/2000/svg"><path d="M682.624896 578.320147a314.32158 314.32158 0 1 0-341.190318 0A438.429558 438.429558 0 0 0 74.026667 981.35121a42.64879 42.64879 0 0 0 85.297579 0 352.705491 352.705491 0 0 1 704.984494 0 42.64879 42.64879 0 0 0 85.29758 0 438.429558 438.429558 0 0 0-266.981424-403.031063zM283.858712 314.750627a229.024001 229.024001 0 1 1 229.024001 229.024001 229.450489 229.450489 0 0 1-229.024001-229.024001z" fill="#333333" /></svg>