<?xml version="1.0" standalone="no"?><!DOCTYPE svg PUBLIC "-//W3C//DTD SVG 1.1//EN" "http://www.w3.org/Graphics/SVG/1.1/DTD/svg11.dtd"><svg class="icon" width="200px" height="200.00px" viewBox="0 0 1024 1024" version="1.1" xmlns="http://www.w3.org/2000/svg"><path d="M910.115604 116.711952a127.786809 127.786809 0 0 0-127.786809-115.008128H240.086769a127.786809 127.786809 0 0 0-127.786809 115.008128l-76.672085 766.720854a127.786809 127.786809 0 0 0 127.786809 140.56549h695.586197a127.786809 127.786809 0 0 0 127.786809-140.56549z m-19.593977 809.316457a42.595603 42.595603 0 0 1-31.520746 14.056549H163.414684a42.595603 42.595603 0 0 1-31.520747-14.056549 42.595603 42.595603 0 0 1-11.074856-32.798614l76.246129-766.720854a42.595603 42.595603 0 0 1 42.595603-38.336043h543.093938a42.595603 42.595603 0 0 1 42.595603 38.336043l75.820174 766.720854a42.595603 42.595603 0 0 1-10.648901 29.816922z" fill="#333333" /><path d="M724.398775 255.573618a42.595603 42.595603 0 0 0-42.595603 42.595603 170.382412 170.382412 0 0 1-340.764824 0 42.595603 42.595603 0 0 0-85.191206 0 255.573618 255.573618 0 0 0 511.147236 0 42.595603 42.595603 0 0 0-42.595603-42.595603z" fill="#333333" /></svg>