<?xml version="1.0" standalone="no"?><!DOCTYPE svg PUBLIC "-//W3C//DTD SVG 1.1//EN" "http://www.w3.org/Graphics/SVG/1.1/DTD/svg11.dtd"><svg class="icon" width="200px" height="183.18px" viewBox="0 0 1118 1024" version="1.1" xmlns="http://www.w3.org/2000/svg"><path d="M1066.401998 345.674671h-159.9603l-264.282234-324.55713a46.365304 46.365304 0 0 0-71.866222 58.420284l216.525971 266.136846H317.602334l185.461217-268.918764A46.365304 46.365304 0 1 0 427.488105 23.89946L202.61638 345.674671H46.365304a46.365304 46.365304 0 1 0 0 92.730609h30.601101l78.357364 453.452676a141.877831 141.877831 0 0 0 139.095913 132.141117h524.855244a139.095913 139.095913 0 0 0 139.095913-127.96824l78.821017-457.625553h30.601101a46.365304 46.365304 0 0 0 0-92.730609z m-201.22542 538.764836a49.147223 49.147223 0 0 1-46.365305 46.365304H293.956029a51.001835 51.001835 0 0 1-46.365304-51.001835l-74.184487-441.397696h770.591357z" fill="#333333" /><path d="M394.105086 540.872602a46.365304 46.365304 0 0 0-46.365304 46.365305v195.19793a46.365304 46.365304 0 0 0 92.730609 0v-195.19793a46.365304 46.365304 0 0 0-46.365305-46.365305zM556.383651 540.872602a46.365304 46.365304 0 0 0-46.365304 46.365305v195.19793a46.365304 46.365304 0 0 0 92.730608 0v-195.19793a46.365304 46.365304 0 0 0-46.365304-46.365305zM718.662216 540.872602a46.365304 46.365304 0 0 0-46.365304 46.365305v195.19793a46.365304 46.365304 0 0 0 92.730608 0v-195.19793a46.365304 46.365304 0 0 0-46.365304-46.365305z" fill="#333333" /></svg>