<?xml version="1.0" standalone="no"?><!DOCTYPE svg PUBLIC "-//W3C//DTD SVG 1.1//EN" "http://www.w3.org/Graphics/SVG/1.1/DTD/svg11.dtd"><svg class="icon" width="200px" height="189.81px" viewBox="0 0 1079 1024" version="1.1" xmlns="http://www.w3.org/2000/svg"><path d="M1041.972795 241.284774a134.795963 134.795963 0 0 0-99.299693-44.931988H281.723563l-4.493199-65.600702a137.941202 137.941202 0 0 0-134.795963-130.752084H44.931988a44.931988 44.931988 0 0 0 0 89.863975h97.053093a48.526547 48.526547 0 0 1 44.931988 44.931988l39.090829 575.129443a137.941202 137.941202 0 0 0 134.795963 130.752084h547.720931a137.941202 137.941202 0 0 0 134.795963-129.404124l33.698991-359.455902a142.434401 142.434401 0 0 0-35.046951-110.53269z m-89.863975 464.596753a47.627907 47.627907 0 0 1-44.931988 44.931988H362.151821a48.526547 48.526547 0 0 1-44.931988-44.931988l-29.205792-419.664765h654.659061a44.931988 44.931988 0 0 1 32.351031 15.276876 53.019746 53.019746 0 0 1 13.030277 41.786748z" fill="#333333" /><path d="M426.853883 956.602018m-67.397981 0a67.397982 67.397982 0 1 0 134.795963 0 67.397982 67.397982 0 1 0-134.795963 0Z" fill="#333333" /><path d="M831.241773 956.602018m-67.397982 0a67.397982 67.397982 0 1 0 134.795963 0 67.397982 67.397982 0 1 0-134.795963 0Z" fill="#333333" /></svg>