<?xml version="1.0" standalone="no"?><!DOCTYPE svg PUBLIC "-//W3C//DTD SVG 1.1//EN" "http://www.w3.org/Graphics/SVG/1.1/DTD/svg11.dtd"><svg class="icon" width="200px" height="200.00px" viewBox="0 0 1024 1024" version="1.1" xmlns="http://www.w3.org/2000/svg"><path d="M896 0H128a128 128 0 0 0-128 128v768a128 128 0 0 0 128 128h768a128 128 0 0 0 128-128V128a128 128 0 0 0-128-128z m42.666667 896a42.666667 42.666667 0 0 1-42.666667 42.666667H128a42.666667 42.666667 0 0 1-42.666667-42.666667V128a42.666667 42.666667 0 0 1 42.666667-42.666667h768a42.666667 42.666667 0 0 1 42.666667 42.666667z" fill="#333333" /><path d="M697.173333 468.053333l-256-147.626666a42.666667 42.666667 0 0 0-42.666666 0 42.666667 42.666667 0 0 0-21.333334 36.693333v295.68a42.666667 42.666667 0 0 0 21.333334 37.12 45.226667 45.226667 0 0 0 21.333333 5.546667 48.213333 48.213333 0 0 0 21.333333-5.546667l256-148.053333a42.666667 42.666667 0 0 0 0-73.813334z m-234.666666 110.933334V430.933333l128 74.24z" fill="#333333" /></svg>