<?xml version="1.0" standalone="no"?><!DOCTYPE svg PUBLIC "-//W3C//DTD SVG 1.1//EN" "http://www.w3.org/Graphics/SVG/1.1/DTD/svg11.dtd"><svg class="icon" width="200px" height="200.00px" viewBox="0 0 1024 1024" version="1.1" xmlns="http://www.w3.org/2000/svg"><path d="M511.148087 0a511.148087 511.148087 0 1 0 511.148086 511.148087 511.148087 511.148087 0 0 0-511.148086-511.148087z m0 937.104825a425.956739 425.956739 0 1 1 425.956738-425.956738 425.956739 425.956739 0 0 1-425.956738 425.956738z" fill="#333333" /><path d="M690.475874 333.950083a42.595674 42.595674 0 0 0-60.485857 0L511.148087 452.792013 392.306156 333.950083a42.595674 42.595674 0 0 0-60.485856 0 42.595674 42.595674 0 0 0 0 60.0599l119.267886 117.138104-119.267886 119.267886a42.595674 42.595674 0 0 0 0 60.059901 42.595674 42.595674 0 0 0 60.485856 0L511.148087 573.33777l118.84193 118.84193a42.595674 42.595674 0 0 0 60.485857 0 42.595674 42.595674 0 0 0 0-60.0599l-119.267887-120.971713 119.267887-118.841931a42.595674 42.595674 0 0 0 0-58.356073z" fill="#333333" /></svg>