<?xml version="1.0" standalone="no"?><!DOCTYPE svg PUBLIC "-//W3C//DTD SVG 1.1//EN" "http://www.w3.org/Graphics/SVG/1.1/DTD/svg11.dtd"><svg class="icon" width="200px" height="182.69px" viewBox="0 0 1121 1024" version="1.1" xmlns="http://www.w3.org/2000/svg"><path d="M1103.549338 321.143987l-146.486731-252.1262A140.852626 140.852626 0 0 0 837.807383 0H282.378528a140.852626 140.852626 0 0 0-119.255223 69.017787L18.0451 321.143987a138.035574 138.035574 0 0 0 12.207227 154.46838l422.557878 495.331735a136.157539 136.157539 0 0 0 108.456523 53.054489 135.68803 135.68803 0 0 0 107.517504-52.115471l422.557878-497.679279a138.035574 138.035574 0 0 0 12.207228-153.059854z m-83.572558 93.901751l-422.557878 496.740261a43.664314 43.664314 0 0 1-34.274139 16.902316 44.133823 44.133823 0 0 1-35.682666-18.310842l-422.557878-495.331735a43.194805 43.194805 0 0 1-3.286561-46.950875l144.608696-252.126201a43.194805 43.194805 0 0 1 37.5607-22.066911h555.898364a43.194805 43.194805 0 0 1 37.560701 22.066911l144.608696 252.126201a43.194805 43.194805 0 0 1-1.878035 46.950875z" fill="#333333" /><path d="M769.259105 427.722474l-208.461886 219.730097-207.053361-219.730097a46.997826 46.997826 0 0 0-68.548278 64.3227l202.358273 216.443535a91.084698 91.084698 0 0 0 72.304348 35.213157 87.328628 87.328628 0 0 0 69.017787-31.926596l207.05336-219.730096a46.950875 46.950875 0 0 0-66.670243-64.3227z" fill="#333333" /></svg>