<?xml version="1.0" standalone="no"?><!DOCTYPE svg PUBLIC "-//W3C//DTD SVG 1.1//EN" "http://www.w3.org/Graphics/SVG/1.1/DTD/svg11.dtd"><svg class="icon" width="200px" height="200.00px" viewBox="0 0 1024 1024" version="1.1" xmlns="http://www.w3.org/2000/svg"><path d="M511.79405 207.866889a209.144759 209.144759 0 1 0 209.144759 209.144758 209.144759 209.144759 0 0 0-209.144759-209.144758z m0 332.672212a123.953411 123.953411 0 1 1 123.953411-123.527454 123.527454 123.527454 0 0 1-123.953411 123.527454z" fill="#333333" /><path d="M838.928825 674.715474a417.011647 417.011647 0 1 0-653.843594 0C17.258276 837.004992 17.684233 839.134775 41.111854 871.081531l22.575707 29.816971 32.798669-17.038269c13.204659-6.815308 40.46589 4.685524 59.207986 25.131448s23.853577 34.502496 16.612313 46.855241l9.797005 56.652246a39.613977 39.613977 0 0 0 22.575707 11.500832c23.853577 0 64.319468-42.595674 218.941764-199.77371a421.697171 421.697171 0 0 0 176.772047 0c154.622296 158.881864 195.088186 199.77371 218.515807 199.77371a39.18802 39.18802 0 0 0 23.001663-11.500832l29.816972-24.279534-20.019967-32.372712c-7.241265-12.352745 3.407654-32.798669 16.612313-46.855241s46.003328-31.946755 59.207987-25.131448l55.374376-12.778702c21.723794-31.946755 23.853577-34.076539-143.973378-196.366057z m-596.339434 212.97837a160.585691 160.585691 0 0 0-25.131448-34.928453 187.846922 187.846922 0 0 0-51.540765-39.18802l77.524126-75.820299a406.362729 406.362729 0 0 0 91.154743 54.522462z m-63.041597-468.552413a331.8203 331.8203 0 1 1 332.246256 330.542429 331.8203 331.8203 0 0 1-331.394343-332.672213z m626.156406 431.920133a160.585691 160.585691 0 0 0-25.131448 34.928453l-91.154742-93.710483a406.362729 406.362729 0 0 0 90.302829-57.50416l77.524126 75.8203a187.846922 187.846922 0 0 0-51.540765 40.46589z" fill="#333333" /></svg>