<?xml version="1.0" standalone="no"?><!DOCTYPE svg PUBLIC "-//W3C//DTD SVG 1.1//EN" "http://www.w3.org/Graphics/SVG/1.1/DTD/svg11.dtd"><svg class="icon" width="200px" height="183.35px" viewBox="0 0 1117 1024" version="1.1" xmlns="http://www.w3.org/2000/svg"><path d="M636.740371 5.119988a46.545349 46.545349 0 0 0-48.872616 4.654535L293.701151 232.726744H139.636046a139.636046 139.636046 0 0 0-139.636046 139.636046v279.272093a139.636046 139.636046 0 0 0 139.636046 139.636046h152.203291l294.166604 223.417674a46.545349 46.545349 0 0 0 28.392663 9.30907 46.545349 46.545349 0 0 0 20.479953-4.654535 46.545349 46.545349 0 0 0 26.065395-41.890814V46.545349a46.545349 46.545349 0 0 0-24.203581-41.425361z m-67.025302 878.776185l-232.726744-175.941418a46.545349 46.545349 0 0 0-27.927209-8.843617H139.636046a46.545349 46.545349 0 0 1-46.545348-46.545348v-279.272093a46.545349 46.545349 0 0 1 46.545348-46.545349h168.028709a46.545349 46.545349 0 0 0 27.92721-8.843616l232.726743-175.941418zM1008.172254 511.998836l95.417965-93.090697a46.545349 46.545349 0 0 0-66.094395-65.628942l-93.090698 93.090698-93.090697-93.090698A46.545349 46.545349 0 1 0 785.220034 418.908139l93.090697 93.090697-93.090697 93.090698a46.545349 46.545349 0 0 0 0 65.628942 46.545349 46.545349 0 0 0 66.094395 0l93.090697-93.090698 93.090698 93.090698a46.545349 46.545349 0 0 0 66.094395 0 46.545349 46.545349 0 0 0 0-65.628942z" fill="#333333" /></svg>