<?xml version="1.0" standalone="no"?><!DOCTYPE svg PUBLIC "-//W3C//DTD SVG 1.1//EN" "http://www.w3.org/Graphics/SVG/1.1/DTD/svg11.dtd"><svg class="icon" width="200px" height="200.00px" viewBox="0 0 1024 1024" version="1.1" xmlns="http://www.w3.org/2000/svg"><path d="M512 0a512 512 0 1 0 512 512A512 512 0 0 0 512 0z m0 938.666667a426.666667 426.666667 0 1 1 426.666667-426.666667 426.666667 426.666667 0 0 1-426.666667 426.666667z" fill="#333333" /><path d="M610.133333 341.333333H413.866667a85.333333 85.333333 0 0 0-85.333334 85.333334v170.666666a85.333333 85.333333 0 0 0 85.333334 85.333334h196.266666a85.333333 85.333333 0 0 0 85.333334-85.333334v-170.666666a85.333333 85.333333 0 0 0-85.333334-85.333334z m0 256H413.866667v-170.666666h196.266666z" fill="#333333" /></svg>