<?xml version="1.0" standalone="no"?><!DOCTYPE svg PUBLIC "-//W3C//DTD SVG 1.1//EN" "http://www.w3.org/Graphics/SVG/1.1/DTD/svg11.dtd"><svg class="icon" width="200px" height="200.00px" viewBox="0 0 1024 1024" version="1.1" xmlns="http://www.w3.org/2000/svg"><path d="M843.923814 710.973713l-264.603434-205.566713 260.356188-200.045293a42.472461 42.472461 0 0 0 0-67.106489L542.369338 9.753376A42.472461 42.472461 0 0 0 494.375457 5.50613a42.472461 42.472461 0 0 0-23.359854 38.225215v382.252152l-242.093029-186.029381A42.557406 42.557406 0 0 0 177.106171 307.48533l266.727057 204.717264-265.877608 205.566713a42.557406 42.557406 0 1 0 51.816403 67.531213l242.093029-186.029381v382.252152a42.472461 42.472461 0 0 0 23.359854 38.225216 42.472461 42.472461 0 0 0 19.112608 4.247246 42.472461 42.472461 0 0 0 25.908201-8.919217l303.678099-233.598537a42.472461 42.472461 0 0 0 0-67.106489zM556.809975 129.950442l185.179931 142.282745-185.179931 142.282746z m0 761.955956v-294.758882l192.40025 147.379441z" fill="#333333" /></svg>