<?xml version="1.0" standalone="no"?><!DOCTYPE svg PUBLIC "-//W3C//DTD SVG 1.1//EN" "http://www.w3.org/Graphics/SVG/1.1/DTD/svg11.dtd"><svg class="icon" width="200px" height="121.47px" viewBox="0 0 1686 1024" version="1.1" xmlns="http://www.w3.org/2000/svg"><path d="M1650.680776 421.399177c-120.399765-126.419753-431.633157-421.399177-807.882422-421.399177S152.305703 294.377425 34.915932 421.399177a135.449735 135.449735 0 0 0 0 180.599647c120.399765 127.021752 431.633157 421.399177 807.882422 421.399177s689.890653-294.377425 807.882422-421.399177a135.449735 135.449735 0 0 0 0-180.599647z m-88.493827 99.329806C1455.633157 635.710758 1171.489712 903.600235 842.798354 903.600235S229.963551 635.710758 120.399765 520.728983a13.845973 13.845973 0 0 1 0-17.457966C226.953557 388.289242 511.097002 121.001764 842.798354 121.001764s612.834803 267.287478 719.388595 382.269253a15.651969 15.651969 0 0 1 0 17.457966z" fill="#333333" /><path d="M842.798354 241.401529a270.899471 270.899471 0 1 0 273.909465 270.89947A272.705467 272.705467 0 0 0 842.798354 241.401529z m0 421.399176a150.499706 150.499706 0 1 1 153.5097-150.499706A151.703704 151.703704 0 0 1 842.798354 662.800705z" fill="#333333" /></svg>