<?xml version="1.0" standalone="no"?><!DOCTYPE svg PUBLIC "-//W3C//DTD SVG 1.1//EN" "http://www.w3.org/Graphics/SVG/1.1/DTD/svg11.dtd"><svg class="icon" width="200px" height="198.64px" viewBox="0 0 1031 1024" version="1.1" xmlns="http://www.w3.org/2000/svg"><path d="M944.880833 250.915682h-180.386341a149.892459 149.892459 0 0 0-4.294913-207.444292 154.187372 154.187372 0 0 0-214.745644 0 186.399219 186.399219 0 0 0-32.211846 42.949129 198.424975 198.424975 0 0 0-31.782355-42.949129 154.187372 154.187372 0 0 0-214.745644 0 149.892459 149.892459 0 0 0-4.294913 207.444292H85.898258a85.898258 85.898258 0 0 0-85.898258 85.898258v85.898257a85.898258 85.898258 0 0 0 85.898258 85.898258h42.949128v386.542159a128.847386 128.847386 0 0 0 128.847387 128.847386h515.389545a128.847386 128.847386 0 0 0 128.847386-128.847386v-386.542159h42.949129a85.898258 85.898258 0 0 0 85.898257-85.898258v-85.898257a85.898258 85.898258 0 0 0-85.898257-85.898258zM608.159663 104.029662a65.282676 65.282676 0 0 1 45.526077-18.897617 64.423693 64.423693 0 0 1 45.526076 18.897617 63.135219 63.135219 0 0 1 18.897617 45.526076 64.423693 64.423693 0 0 1-18.897617 45.955568c-30.923373 30.923373-102.648418 48.962007-121.116543 30.06439s0.858983-90.19317 30.06439-121.546034z m-276.592389 0a66.57115 66.57115 0 0 1 91.052153 0c31.352864 31.352864 48.962007 103.077909 30.493882 121.546034s-90.19317 0-121.546035-30.06439a65.282676 65.282676 0 0 1 0-91.481644zM85.898258 422.712197v-85.898257h386.542158v85.898257H85.898258z m128.847386 472.440417v-386.542159h257.694772v429.491287H257.694773a42.949129 42.949129 0 0 1-42.949129-42.949128z m601.287803 0a42.949129 42.949129 0 0 1-42.949129 42.949128h-214.745644v-429.491287h257.694773z m128.847386-472.440417h-386.542159v-85.898257h386.542159z" fill="#333333" /></svg>