<?xml version="1.0" standalone="no"?><!DOCTYPE svg PUBLIC "-//W3C//DTD SVG 1.1//EN" "http://www.w3.org/Graphics/SVG/1.1/DTD/svg11.dtd"><svg class="icon" width="200px" height="200.00px" viewBox="0 0 1024 1024" version="1.1" xmlns="http://www.w3.org/2000/svg"><path d="M511.998503 621.072682a207.451963 207.451963 0 0 0 207.451963-207.451964V207.451963a207.451963 207.451963 0 0 0-414.903926 0v206.168755a207.879699 207.879699 0 0 0 207.451963 207.451964zM390.093741 207.451963a121.904762 121.904762 0 0 1 243.809524 0v206.168755a121.904762 121.904762 0 0 1-243.809524 0z" fill="#333333" /><path d="M884.128829 413.620718v-35.074352a42.773601 42.773601 0 0 0-85.547202 0v35.074352a286.583124 286.583124 0 0 1-573.166249 0v-40.207184a42.773601 42.773601 0 0 0-85.547201 0v40.207184a372.558062 372.558062 0 0 0 331.495405 369.56391 42.773601 42.773601 0 0 0 0 9.837928v145.430243h-218.145363a42.773601 42.773601 0 1 0 0 85.547201h517.560568a42.773601 42.773601 0 0 0 0-85.547201H553.916632a12.83208 12.83208 0 0 0 0-4.27736v-139.441939a79.131161 79.131161 0 0 0 0-9.837928 372.130326 372.130326 0 0 0 330.212197-371.274854z" fill="#333333" /></svg>