<?xml version="1.0" standalone="no"?><!DOCTYPE svg PUBLIC "-//W3C//DTD SVG 1.1//EN" "http://www.w3.org/Graphics/SVG/1.1/DTD/svg11.dtd"><svg class="icon" width="200px" height="200.00px" viewBox="0 0 1024 1024" version="1.1" xmlns="http://www.w3.org/2000/svg"><path d="M809.610429 384.931974H295.373691V299.722904A214.513834 214.513834 0 1 1 724.401359 299.722904a42.604535 42.604535 0 0 0 85.20907 0A299.722904 299.722904 0 1 0 210.164621 299.722904v85.20907A127.813605 127.813605 0 0 0 85.333333 512.745579v383.440816a127.813605 127.813605 0 0 0 127.813605 127.813605h596.463491a127.813605 127.813605 0 0 0 127.813605-127.813605v-383.440816a127.813605 127.813605 0 0 0-127.813605-127.813605z m42.604535 511.254421a42.604535 42.604535 0 0 1-42.604535 42.604535H213.146938a42.604535 42.604535 0 0 1-42.604535-42.604535v-383.440816a42.604535 42.604535 0 0 1 42.604535-42.604535h596.463491a42.604535 42.604535 0 0 1 42.604535 42.604535z" fill="#333333" /><path d="M511.378684 534.047847a170.41814 170.41814 0 1 0 170.41814 170.41814 170.41814 170.41814 0 0 0-170.41814-170.41814z m0 255.62721a85.20907 85.20907 0 1 1 85.20907-85.20907 85.20907 85.20907 0 0 1-85.20907 85.20907z" fill="#333333" /></svg>