<?xml version="1.0" standalone="no"?><!DOCTYPE svg PUBLIC "-//W3C//DTD SVG 1.1//EN" "http://www.w3.org/Graphics/SVG/1.1/DTD/svg11.dtd"><svg class="icon" width="200px" height="200.00px" viewBox="0 0 1024 1024" version="1.1" xmlns="http://www.w3.org/2000/svg"><path d="M511.935293 89.406026a444.475673 444.475673 0 0 0-321.861694 751.436363l-110.693175 110.693175a42.574298 42.574298 0 0 0 0 60.029761 42.574298 42.574298 0 0 0 30.227751 12.346546 42.574298 42.574298 0 0 0 29.802009-12.346546l114.950605-114.950605a442.346958 442.346958 0 0 0 519.406438-3.405944l108.56446 117.07932a42.574298 42.574298 0 0 0 60.029761 2.554458 42.574298 42.574298 0 0 0 2.554458-60.455504l-107.712975-115.802091a440.643986 440.643986 0 0 0 119.633778-302.277517A445.327159 445.327159 0 0 0 511.935293 89.406026zM152.182473 534.307442A359.75282 359.75282 0 1 1 511.935293 894.060262a360.178563 360.178563 0 0 1-359.75282-359.75282zM988.767433 145.6041L854.658393 11.495061a42.574298 42.574298 0 0 0-60.02976 60.02976l133.683296 135.386268a42.574298 42.574298 0 0 0 30.227752 12.346547 42.574298 42.574298 0 0 0 29.802009-12.346547 42.574298 42.574298 0 0 0 0.425743-61.306989zM228.81621 72.80205A42.574298 42.574298 0 0 0 168.78645 12.772289L34.251668 145.6041a42.574298 42.574298 0 0 0 0 60.02976 42.574298 42.574298 0 0 0 30.227751 12.346547 42.574298 42.574298 0 0 0 29.802009-12.346547z" fill="#333333" /><path d="M703.519635 510.891578h-170.297193V340.594385a42.574298 42.574298 0 0 0-85.148596 0v212.871491a42.574298 42.574298 0 0 0 42.574298 42.574299h212.871491a42.574298 42.574298 0 0 0 0-85.148597z" fill="#333333" /></svg>