<?xml version="1.0" standalone="no"?><!DOCTYPE svg PUBLIC "-//W3C//DTD SVG 1.1//EN" "http://www.w3.org/Graphics/SVG/1.1/DTD/svg11.dtd"><svg class="icon" width="200px" height="166.64px" viewBox="0 0 1229 1024" version="1.1" xmlns="http://www.w3.org/2000/svg"><path d="M1075.062929 0.130543H153.580418a148.973006 148.973006 0 0 0-153.580418 143.341724v552.889507a148.973006 148.973006 0 0 0 153.580418 143.341724h122.352401l18.42965 139.758181a51.193473 51.193473 0 0 0 32.251888 40.954778 58.872494 58.872494 0 0 0 18.42965 3.583543 54.265081 54.265081 0 0 0 33.275757-12.286433l204.773892-172.010069h492.993143a148.973006 148.973006 0 0 0 153.580418-143.341724V143.472267A148.461071 148.461071 0 0 0 1075.062929 0.130543z m51.193473 696.231231a47.60993 47.60993 0 0 1-51.193473 40.954778H563.128201a51.193473 51.193473 0 0 0-32.763822 11.774499l-147.437202 123.888204-11.774499-89.588577a51.193473 51.193473 0 0 0-51.193473-44.026387H153.580418a47.60993 47.60993 0 0 1-51.193472-40.954778V143.472267A47.60993 47.60993 0 0 1 153.580418 102.517489h921.482511a47.60993 47.60993 0 0 1 51.193473 40.954778z" fill="#333333" /><path d="M921.482511 256.097908H255.967364a51.193473 51.193473 0 1 0 0 102.386945h665.515147a51.193473 51.193473 0 0 0 0-102.386945zM665.515147 460.871799H255.967364a51.193473 51.193473 0 1 0 0 102.386946h409.547783a51.193473 51.193473 0 0 0 0-102.386946z" fill="#333333" /></svg>