<?xml version="1.0" standalone="no"?><!DOCTYPE svg PUBLIC "-//W3C//DTD SVG 1.1//EN" "http://www.w3.org/Graphics/SVG/1.1/DTD/svg11.dtd"><svg class="icon" width="200px" height="199.03px" viewBox="0 0 1029 1024" version="1.1" xmlns="http://www.w3.org/2000/svg"><path d="M902.595727 208.918307l-82.79514-143.282781A131.700042 131.700042 0 0 0 640.482614 17.588605L311.447005 207.631336H128.697109a128.697109 128.697109 0 0 0-128.697109 128.69711v557.687474a128.697109 128.697109 0 0 0 128.697109 128.697109h772.182656a128.697109 128.697109 0 0 0 128.69711-128.697109v-557.687474a128.697109 128.697109 0 0 0-126.981148-127.410139z m-219.214076-117.114369a45.472979 45.472979 0 0 1 62.203602 16.730624l57.9137 100.383745h-320.455803zM943.778802 702.257227h-171.596146a85.798073 85.798073 0 0 1 0-171.596146h171.596146z m0-257.394219h-171.596146a171.596146 171.596146 0 0 0 0 343.192292h171.596146v107.247591a42.899036 42.899036 0 0 1-42.899037 42.899036H128.697109a42.899036 42.899036 0 0 1-42.899036-42.899036v-557.687474a42.899036 42.899036 0 0 1 42.899036-42.899037h772.182656a42.899036 42.899036 0 0 1 42.899037 42.899037z" fill="#333333" /><path d="M793.632174 616.459154m-64.348554 0a64.348555 64.348555 0 1 0 128.697109 0 64.348555 64.348555 0 1 0-128.697109 0Z" fill="#333333" /></svg>