<?xml version="1.0" standalone="no"?><!DOCTYPE svg PUBLIC "-//W3C//DTD SVG 1.1//EN" "http://www.w3.org/Graphics/SVG/1.1/DTD/svg11.dtd"><svg class="icon" width="200px" height="199.80px" viewBox="0 0 1025 1024" version="1.1" xmlns="http://www.w3.org/2000/svg"><path d="M896.212978 0h-234.276206a42.595674 42.595674 0 0 0 0 85.191348h234.276206a42.595674 42.595674 0 0 1 42.595674 42.595674v234.276206a42.595674 42.595674 0 0 0 85.191348 0v-234.276206a127.787022 127.787022 0 0 0-127.787022-127.787022zM362.063228 0H129.490849a127.787022 127.787022 0 0 0-127.787022 127.787022v234.276206a42.595674 42.595674 0 0 0 85.191348 0v-234.276206a42.595674 42.595674 0 0 1 42.595674-42.595674h234.276206a42.595674 42.595674 0 0 0 0-85.191348zM362.063228 937.104825H129.490849a42.595674 42.595674 0 0 1-42.595674-42.595674v-234.276206a42.595674 42.595674 0 0 0-85.191348 0v234.276206a127.787022 127.787022 0 0 0 127.787022 127.787022h234.276206a42.595674 42.595674 0 1 0 0-85.191348zM981.404326 619.341098a42.595674 42.595674 0 0 0-42.595674 42.595674v232.572379a42.595674 42.595674 0 0 1-42.595674 42.595674h-234.276206a42.595674 42.595674 0 0 0 0 85.191348h234.276206a127.787022 127.787022 0 0 0 127.787022-127.787022v-234.276206a42.595674 42.595674 0 0 0-42.595674-40.891847z" fill="#333333" /></svg>