<?xml version="1.0" standalone="no"?><!DOCTYPE svg PUBLIC "-//W3C//DTD SVG 1.1//EN" "http://www.w3.org/Graphics/SVG/1.1/DTD/svg11.dtd"><svg class="icon" width="200px" height="200.00px" viewBox="0 0 1024 1024" version="1.1" xmlns="http://www.w3.org/2000/svg"><path d="M512 0a512 512 0 1 0 512 512A512 512 0 0 0 512 0z m0 938.666667a426.666667 426.666667 0 1 1 426.666667-426.666667 426.666667 426.666667 0 0 1-426.666667 426.666667z" fill="#333333" /><path d="M665.6 305.92L406.186667 375.893333a42.666667 42.666667 0 0 0-30.293334 29.866667L306.346667 665.6a42.666667 42.666667 0 0 0 11.093333 42.666667 42.666667 42.666667 0 0 0 29.866667 12.8 32 32 0 0 0 11.093333 0l259.84-69.546667a42.666667 42.666667 0 0 0 30.293333-29.866667l69.546667-259.84a42.666667 42.666667 0 0 0-52.48-52.48z m-49.066667 101.546667l-31.573333 115.626666-85.333333-85.333333z m-208.64 208.64l31.146667-116.906667 42.666667 42.666667 42.666666 42.666666z" fill="#333333" /></svg>