<?xml version="1.0" standalone="no"?><!DOCTYPE svg PUBLIC "-//W3C//DTD SVG 1.1//EN" "http://www.w3.org/Graphics/SVG/1.1/DTD/svg11.dtd"><svg class="icon" width="200px" height="200.00px" viewBox="0 0 1024 1024" version="1.1" xmlns="http://www.w3.org/2000/svg"><path d="M895.741543 446.960433c-39.663474-104.489796-113.446064-197.890879-163.771761-208.979592a42.648896 42.648896 0 0 0-51.178676 48.619742 121.975843 121.975843 0 0 1 0 42.648896C595.493314 120.269888 365.615762 9.809246 354.527049 4.26489a42.648896 42.648896 0 0 0-52.458142 12.794669 42.648896 42.648896 0 0 0 0 53.31112c54.164098 63.120367 28.148272 229.877551-31.986672 370.19242-24.309871-34.119117-45.20783-63.546855-78.473969-66.532279a42.648896 42.648896 0 0 0-39.236985 19.192004 42.648896 42.648896 0 0 0-5.117868 36.251562 409.429404 409.429404 0 0 1-14.500624 56.723032c-25.162849 85.297793-67.385256 229.024573-4.26489 354.838817 67.385256 135.62349 234.142441 182.963765 380.428155 182.963765h28.148272a416.253228 416.253228 0 0 0 359.103706-576.186589z m-110.034152 346.309038a321.146189 321.146189 0 0 1-251.201999 144.579758h-5.544357c-115.578509 5.117868-270.820491-27.295294-324.5581-135.197001-48.193253-95.960017-13.221158-213.244481 9.809246-292.571428a348.441483 348.441483 0 0 0 34.545606 42.648896 42.648896 42.648896 0 0 0 36.251562 12.36818 42.648896 42.648896 0 0 0 31.560183-22.177426c53.31112-101.077884 109.607663-267.835069 97.665972-398.340692 85.297793 62.267389 194.905456 170.595585 209.83257 314.748855a42.648896 42.648896 0 0 0 31.560183 36.678051 42.648896 42.648896 0 0 0 45.634319-16.63307 369.339442 369.339442 0 0 0 55.443566-108.328196 454.210746 454.210746 0 0 1 74.209079 153.109537 306.645564 306.645564 0 0 1-45.20783 269.114536z" fill="#333333" /></svg>