<?xml version="1.0" standalone="no"?><!DOCTYPE svg PUBLIC "-//W3C//DTD SVG 1.1//EN" "http://www.w3.org/Graphics/SVG/1.1/DTD/svg11.dtd"><svg class="icon" width="200px" height="164.76px" viewBox="0 0 1243 1024" version="1.1" xmlns="http://www.w3.org/2000/svg"><path d="M846.714019 682.236429l-189.523434-189.523434a52.818006 52.818006 0 0 0-14.647011-9.764674 44.384879 44.384879 0 0 0-33.732508 0 47.047972 47.047972 0 0 0-14.64701 9.764674L404.640621 682.236429a44.384879 44.384879 0 0 0 0 63.026529 44.384879 44.384879 0 0 0 62.58268 0l114.06914-114.06914V979.615121a44.384879 44.384879 0 0 0 88.769759 0v-348.421303l114.069139 114.06914a44.384879 44.384879 0 0 0 62.58268-63.026529z" fill="#333333" /><path d="M942.14151 328.488941a259.651544 259.651544 0 0 0 0-26.187079 319.127282 319.127282 0 0 0-637.366867 0 259.651544 259.651544 0 0 0 0 26.187079 299.597935 299.597935 0 1 0 17.310103 598.308173 310.694155 310.694155 0 0 0 41.277937-2.663092 44.384879 44.384879 0 0 0 38.614845-49.267217 44.384879 44.384879 0 0 0-49.267216-39.058693 237.015256 237.015256 0 0 1-30.625566 2.219244 211.715874 211.715874 0 1 1 0-421.656354h31.513264a12.871615 12.871615 0 0 0 5.770034 0 44.384879 44.384879 0 0 0 44.38488-37.727147 48.823367 48.823367 0 0 0-3.106942-21.304742 184.641098 184.641098 0 0 1-8.433127-56.368797 230.801372 230.801372 0 0 1 459.82735 0 202.39505 202.39505 0 0 1-8.876976 59.031889 8.433127 8.433127 0 0 0 0 3.550791 31.513264 31.513264 0 0 0 0 8.876976v2.663092a34.620206 34.620206 0 0 0 0 9.764674v6.213883a67.021168 67.021168 0 0 0 7.989278 11.540069 39.946391 39.946391 0 0 0 13.315464 9.320824 11.540069 11.540069 0 0 0 3.994639 0 44.384879 44.384879 0 0 0 13.315464 0 50.154914 50.154914 0 0 0 7.989278 0h28.406323a211.715874 211.715874 0 1 1 0 421.656354 231.245221 231.245221 0 0 1-30.625567-2.219244 44.695573 44.695573 0 0 0-10.652371 88.769758 319.571131 319.571131 0 0 0 359.961371-296.934842 308.031062 308.031062 0 0 0-294.715598-294.715599z" fill="#333333" /></svg>