<?xml version="1.0" standalone="no"?><!DOCTYPE svg PUBLIC "-//W3C//DTD SVG 1.1//EN" "http://www.w3.org/Graphics/SVG/1.1/DTD/svg11.dtd"><svg class="icon" width="200px" height="200.00px" viewBox="0 0 1024 1024" version="1.1" xmlns="http://www.w3.org/2000/svg"><path d="M981.333333 213.333333h-192V128a128 128 0 0 0-128-128h-298.666666a128 128 0 0 0-128 128v85.333333H42.666667a42.666667 42.666667 0 0 0 0 85.333334h106.666666v597.333333a128 128 0 0 0 128 128h469.333334a128 128 0 0 0 128-128V298.666667H981.333333a42.666667 42.666667 0 0 0 0-85.333334zM320 128a42.666667 42.666667 0 0 1 42.666667-42.666667h298.666666a42.666667 42.666667 0 0 1 42.666667 42.666667v85.333333h-384z m469.333333 768a42.666667 42.666667 0 0 1-42.666666 42.666667h-469.333334a42.666667 42.666667 0 0 1-42.666666-42.666667V298.666667h554.666666z" fill="#333333" /><path d="M405.333333 405.333333a42.666667 42.666667 0 0 0-42.666666 42.666667v341.333333a42.666667 42.666667 0 1 0 85.333333 0v-341.333333a42.666667 42.666667 0 0 0-42.666667-42.666667zM618.666667 405.333333a42.666667 42.666667 0 0 0-42.666667 42.666667v341.333333a42.666667 42.666667 0 1 0 85.333333 0v-341.333333a42.666667 42.666667 0 0 0-42.666666-42.666667z" fill="#333333" /></svg>