<?xml version="1.0" standalone="no"?><!DOCTYPE svg PUBLIC "-//W3C//DTD SVG 1.1//EN" "http://www.w3.org/Graphics/SVG/1.1/DTD/svg11.dtd"><svg class="icon" width="200px" height="190.51px" viewBox="0 0 1075 1024" version="1.1" xmlns="http://www.w3.org/2000/svg"><path d="M1022.489696 369.90099l-72.418375-25.53212a98.878935 98.878935 0 0 1-60.348646-103.056918l14.855051-78.91746a92.84407 92.84407 0 0 0-50.135798-92.84407l-92.84407-52.921121a89.594528 89.594528 0 0 0-103.985359 0l-40.851391 34.816527a46.422035 46.422035 0 0 0-18.568814 14.390831 97.022054 97.022054 0 0 1-118.84041 0 41.779832 41.779832 0 0 0-19.961476-10.677068L417.146356 19.414624a90.058748 90.058748 0 0 0-103.985359 0l-92.84407 52.92112a92.84407 92.84407 0 0 0-50.135798 92.84407l15.319272 80.310121a109.091783 109.091783 0 0 1-61.741307 98.878935l-71.025714 25.99634A89.594528 89.594528 0 0 0 0.27648 459.031297v106.770681a89.594528 89.594528 0 0 0 52.4569 88.666088l73.811036 26.92478a87.273426 87.273426 0 0 1 57.099103 100.735816l-15.319271 80.310121a92.84407 92.84407 0 0 0 50.135798 92.844071l92.84407 53.38534a106.770681 106.770681 0 0 0 53.849561 15.319272 76.132138 76.132138 0 0 0 50.135798-17.640373l62.205527-52.921121v-3.249542a144.37253 144.37253 0 0 1 107.699122-2.785322l4.642203 5.570644 61.741307 52.92112a76.132138 76.132138 0 0 0 50.135798 17.640374 106.770681 106.770681 0 0 0 53.849561-15.319272l92.844071-53.38534a92.84407 92.84407 0 0 0 50.135798-92.844071l-14.855051-78.453239a108.627562 108.627562 0 0 1 60.348645-103.985359l72.418375-26.46056a90.058748 90.058748 0 0 0 52.4569-89.130308V458.567077a89.594528 89.594528 0 0 0-46.422035-88.666087z m-40.387171 194.972548v5.106423l-65.455069 23.675238a20.425696 20.425696 0 0 0-6.963306 2.321102 201.471633 201.471633 0 0 0-112.341325 198.686311v3.249542l13.46239 71.489935-3.713763 2.321101-92.84407 53.385341h-3.713763l-55.242222-46.422035a150.407394 150.407394 0 0 0-102.592698-37.601849 195.436768 195.436768 0 0 0-136.016563 39.45873l-52.92112 46.422035h-4.177983l-92.844071-53.38534-3.713763-2.321102 13.462391-71.489934a179.653276 179.653276 0 0 0-117.447749-204.256955h-5.106424l-61.741307-22.746797a14.390831 14.390831 0 0 1 0-4.642204v-106.770681a12.99817 12.99817 0 0 1 0-4.642204l57.563323-21.354136a41.315611 41.315611 0 0 0 14.390831-5.106424 202.400074 202.400074 0 0 0 113.269766-200.543192 53.385341 53.385341 0 0 0-2.785322-7.891746l-12.533949-66.38351 3.713763-2.321102 92.84407-53.38534h4.177983l54.778002 46.422035a48.743137 48.743137 0 0 0 23.211017 9.748627 195.436768 195.436768 0 0 0 97.022054 25.53212 188.009243 188.009243 0 0 0 96.093613-25.53212 48.743137 48.743137 0 0 0 21.818357-9.748627l55.242221-46.422035h3.713763l92.844071 53.38534 3.713763 2.321102-12.99817 69.168832a46.422035 46.422035 0 0 0 0 7.891746 191.723006 191.723006 0 0 0 116.983528 199.150531h2.785323l65.455069 24.139459v110.948664z" fill="#333333" /><path d="M537.843648 344.36887a169.440429 169.440429 0 1 0 168.976208 169.440429 169.904649 169.904649 0 0 0-168.976208-169.440429z m0 245.572567a76.596358 76.596358 0 1 1 76.132138-76.132138 76.132138 76.132138 0 0 1-76.132138 74.275256z" fill="#333333" /></svg>