<?xml version="1.0" standalone="no"?><!DOCTYPE svg PUBLIC "-//W3C//DTD SVG 1.1//EN" "http://www.w3.org/Graphics/SVG/1.1/DTD/svg11.dtd"><svg class="icon" width="200px" height="200.00px" viewBox="0 0 1024 1024" version="1.1" xmlns="http://www.w3.org/2000/svg"><path d="M511.148087 1.703827a511.148087 511.148087 0 1 0 511.148086 511.148086 511.148087 511.148087 0 0 0-511.148086-511.148086z m0 937.104825a425.956739 425.956739 0 1 1 425.956738-425.956739 425.956739 425.956739 0 0 1-425.956738 425.956739z" fill="#333333" /><path d="M558.003328 327.986689a42.595674 42.595674 0 0 0-42.595674 42.595674v191.680532H323.727121a42.595674 42.595674 0 1 0 0 85.191348h234.276207a42.595674 42.595674 0 0 0 42.595674-42.595674V370.582363a42.595674 42.595674 0 0 0-42.595674-42.595674z" fill="#333333" /></svg>