<?xml version="1.0" standalone="no"?><!DOCTYPE svg PUBLIC "-//W3C//DTD SVG 1.1//EN" "http://www.w3.org/Graphics/SVG/1.1/DTD/svg11.dtd"><svg class="icon" width="200px" height="192.12px" viewBox="0 0 1066 1024" version="1.1" xmlns="http://www.w3.org/2000/svg"><path d="M261.723107 1022.241744a92.931068 92.931068 0 0 1-55.293986-17.656903 92.931068 92.931068 0 0 1-36.707771-92.931067l39.495703-232.327669a46.465534 46.465534 0 0 0-13.475004-40.88967L28.001471 475.342411a92.931068 92.931068 0 0 1 51.576743-158.44747l232.327669-33.455185a46.465534 46.465534 0 0 0 33.91984-21.838801l103.61814-209.559557A92.931068 92.931068 0 0 1 531.687858 0a92.931068 92.931068 0 0 1 83.173306 52.041398l103.61814 209.559557a46.465534 46.465534 0 0 0 34.84915 25.556044l232.32767 33.455184a92.931068 92.931068 0 0 1 51.112087 158.447471l-165.881956 163.558679a46.465534 46.465534 0 0 0-13.475005 40.88967l39.495704 232.327669a92.931068 92.931068 0 0 1-134.750048 97.577621l-206.771626-110.587971a46.465534 46.465534 0 0 0-43.212946 0l-207.236281 108.729349a88.74917 88.74917 0 0 1-43.212946 10.687073z m271.823372-929.310676L430.392994 302.955281a139.396601 139.396601 0 0 1-105.012106 76.203475l-232.327669 33.455184 167.740577 163.094024a139.396601 139.396601 0 0 1 39.960359 123.133665l-39.495704 232.327669 206.771626-109.194005a139.396601 139.396601 0 0 1 129.638839 0l206.771626 108.72935-39.495704-232.32767a139.396601 139.396601 0 0 1 39.960359-123.133664l167.740577-163.094024-232.327669-33.455184a139.396601 139.396601 0 0 1-104.547451-76.203476z" fill="#333333" /></svg>