<?xml version="1.0" standalone="no"?><!DOCTYPE svg PUBLIC "-//W3C//DTD SVG 1.1//EN" "http://www.w3.org/Graphics/SVG/1.1/DTD/svg11.dtd"><svg class="icon" width="200px" height="200.00px" viewBox="0 0 1024 1024" version="1.1" xmlns="http://www.w3.org/2000/svg"><path d="M1006.904841 441.055092L540.634391 11.539232a42.737896 42.737896 0 0 0-57.696161 0L17.095159 441.055092A42.737896 42.737896 0 0 0 46.156928 514.991653h66.671119v388.0601a120.948247 120.948247 0 0 0 120.948247 120.948247H413.702838v-277.368948a35.899833 35.899833 0 0 1 35.472454-35.899833h117.529216a35.899833 35.899833 0 0 1 35.472454 35.899833v277.368948h179.926544a120.948247 120.948247 0 0 0 120.948247-120.948247v-388.0601h74.791319a42.737896 42.737896 0 0 0 29.061769-73.936561z m-224.801335 497.469115h-94.450751v-191.893155a121.375626 121.375626 0 0 0-120.948247-121.375626h-117.529216a121.375626 121.375626 0 0 0-120.948247 121.375626v191.893155H233.776294a35.899833 35.899833 0 0 1-35.472454-35.472454V478.664441a34.190317 34.190317 0 0 0 0-6.410685 42.737896 42.737896 0 0 0-42.737897-42.737896l358.143573-328.654424 356.434057 328.654424h-8.54758a42.737896 42.737896 0 0 0-42.737896 42.737896v430.370618a35.899833 35.899833 0 0 1-36.754591 35.899833z" fill="#333333" /></svg>