<?xml version="1.0" standalone="no"?><!DOCTYPE svg PUBLIC "-//W3C//DTD SVG 1.1//EN" "http://www.w3.org/Graphics/SVG/1.1/DTD/svg11.dtd"><svg class="icon" width="200px" height="200.00px" viewBox="0 0 1024 1024" version="1.1" xmlns="http://www.w3.org/2000/svg"><path d="M746.666667 405.333333H981.333333a42.666667 42.666667 0 0 0 0-85.333333h-234.666666a42.666667 42.666667 0 0 1-42.666667-42.666667V42.666667a42.666667 42.666667 0 0 0-85.333333 0v234.666666a128 128 0 0 0 128 128zM362.666667 0a42.666667 42.666667 0 0 0-42.666667 42.666667v234.666666a42.666667 42.666667 0 0 1-42.666667 42.666667H42.666667a42.666667 42.666667 0 0 0 0 85.333333h234.666666a128 128 0 0 0 128-128V42.666667a42.666667 42.666667 0 0 0-42.666666-42.666667zM277.333333 618.666667H42.666667a42.666667 42.666667 0 0 0 0 85.333333h234.666666a42.666667 42.666667 0 0 1 42.666667 42.666667V981.333333a42.666667 42.666667 0 0 0 85.333333 0v-234.666666a128 128 0 0 0-128-128zM981.333333 618.666667h-234.666666a128 128 0 0 0-128 128V981.333333a42.666667 42.666667 0 0 0 85.333333 0v-234.666666a42.666667 42.666667 0 0 1 42.666667-42.666667H981.333333a42.666667 42.666667 0 0 0 0-85.333333z" fill="#333333" /></svg>