<?xml version="1.0" standalone="no"?><!DOCTYPE svg PUBLIC "-//W3C//DTD SVG 1.1//EN" "http://www.w3.org/Graphics/SVG/1.1/DTD/svg11.dtd"><svg class="icon" width="200px" height="134.74px" viewBox="0 0 1520 1024" version="1.1" xmlns="http://www.w3.org/2000/svg"><path d="M54.234641 284.78335h792.36649a229.954409 229.954409 0 0 0 447.977221-3.796417 44.472315 44.472315 0 0 0 16.812705 3.796417h152.941375a54.23453 54.23453 0 1 0 0-108.469061H1309.221675a58.030948 58.030948 0 0 0-16.812704 3.254072 229.954409 229.954409 0 0 0-447.977222-3.254072H54.234641a54.23453 54.23453 0 0 0 0 108.469061zM1070.047396 108.521126a122.027694 122.027694 0 1 1-122.027693 122.027694A122.027694 122.027694 0 0 1 1070.047396 108.521126zM1464.332432 738.72637H720.77702a229.954409 229.954409 0 0 0-447.434876 0 24.405539 24.405539 0 0 0-5.965799 0H54.234641a54.23453 54.23453 0 0 0 0 108.469061h216.938122a229.954409 229.954409 0 0 0 447.434876 0h745.724793a54.23453 54.23453 0 1 0 0-108.469061zM497.330755 914.988594a122.027694 122.027694 0 1 1 122.027693-122.027694 122.027694 122.027694 0 0 1-122.027693 122.027694z" fill="#333333" /></svg>