<?xml version="1.0" standalone="no"?><!DOCTYPE svg PUBLIC "-//W3C//DTD SVG 1.1//EN" "http://www.w3.org/Graphics/SVG/1.1/DTD/svg11.dtd"><svg class="icon" width="200px" height="200.00px" viewBox="0 0 1024 1024" version="1.1" xmlns="http://www.w3.org/2000/svg"><path d="M682.160067 578.50458a314.191507 314.191507 0 1 0-341.049126 0A438.248127 438.248127 0 0 0 74.24 981.368859a42.631141 42.631141 0 0 0 42.631141 42.631141h789.528726a42.631141 42.631141 0 0 0 42.63114-42.631141 438.248127 438.248127 0 0 0-266.87094-402.864279z m-399.453789-264.313073a228.929226 228.929226 0 1 1 228.929226 228.929226 229.355537 229.355537 0 0 1-228.929226-228.929226zM162.06015 937.885096a352.133222 352.133222 0 0 1 699.150708 0z" fill="#333333" /></svg>