<?xml version="1.0" standalone="no"?><!DOCTYPE svg PUBLIC "-//W3C//DTD SVG 1.1//EN" "http://www.w3.org/Graphics/SVG/1.1/DTD/svg11.dtd"><svg class="icon" width="200px" height="166.78px" viewBox="0 0 1228 1024" version="1.1" xmlns="http://www.w3.org/2000/svg"><path d="M1073.510295 184.030336h-199.366198l-15.847057-68.50018A153.358614 153.358614 0 0 0 708.516795 1.533586h-190.164681A153.358614 153.358614 0 0 0 368.060673 115.530156l-15.335862 70.033766H153.358614a148.757855 148.757855 0 0 0-153.358614 143.134706v552.091009a148.757855 148.757855 0 0 0 153.358614 143.134706h920.151681a148.757855 148.757855 0 0 0 153.358613-143.134706V327.165042a148.757855 148.757855 0 0 0-153.358613-143.134706z m51.119538 695.225715a47.54117 47.54117 0 0 1-51.119538 40.89563H153.358614a47.54117 47.54117 0 0 1-51.119538-40.89563V327.165042a47.54117 47.54117 0 0 1 51.119538-40.89563h242.306609a51.119538 51.119538 0 0 0 47.54117-39.362044l24.537378-109.907007a51.119538 51.119538 0 0 1 51.119538-33.738895h190.164681a51.119538 51.119538 0 0 1 51.119538 33.738895l24.537378 110.418202a51.119538 51.119538 0 0 0 47.029975 39.362044h243.329a47.54117 47.54117 0 0 1 51.119538 40.895631z" fill="#333333" /><path d="M613.434454 371.127845a230.03792 230.03792 0 1 0 230.03792 230.03792 230.549116 230.549116 0 0 0-230.03792-230.03792z m0 357.836765a127.798845 127.798845 0 1 1 127.798845-127.798845 127.798845 127.798845 0 0 1-127.798845 127.798845z" fill="#333333" /></svg>