<?xml version="1.0" standalone="no"?><!DOCTYPE svg PUBLIC "-//W3C//DTD SVG 1.1//EN" "http://www.w3.org/Graphics/SVG/1.1/DTD/svg11.dtd"><svg class="icon" width="200px" height="200.00px" viewBox="0 0 1024 1024" version="1.1" xmlns="http://www.w3.org/2000/svg"><path d="M889.6704 785.92l-64-90.026667V423.253333a298.666667 298.666667 0 0 0-213.333333-279.466666 110.08 110.08 0 0 0 6.826666-37.12 106.666667 106.666667 0 0 0-213.333333 0 100.693333 100.693333 0 0 0 7.253333 37.12 298.666667 298.666667 0 0 0-213.333333 279.466666v272.64L136.177067 785.92A42.666667 42.666667 0 0 0 170.737067 853.333333h682.666666a42.666667 42.666667 0 0 0 37.973334-23.04 42.666667 42.666667 0 0 0-1.706667-44.373333zM492.017067 106.666667a21.333333 21.333333 0 0 1 21.333333-21.333334 21.333333 21.333333 0 0 1 21.333333 21.333334 21.333333 21.333333 0 0 1-21.333333 21.333333 21.76 21.76 0 0 1-23.466667-21.333333zM254.7904 768l23.893333-33.706667a42.666667 42.666667 0 0 0 6.826667-22.186666V423.253333a227.84 227.84 0 0 1 453.973333 0v289.706667a39.68 39.68 0 0 0 6.826667 21.333333l23.893333 33.706667zM511.217067 938.666667a42.666667 42.666667 0 0 1-42.666667-42.666667H383.217067a128 128 0 0 0 256 0h-85.333334a42.666667 42.666667 0 0 1-42.666666 42.666667z" fill="#333333" /></svg>