<?xml version="1.0" standalone="no"?><!DOCTYPE svg PUBLIC "-//W3C//DTD SVG 1.1//EN" "http://www.w3.org/Graphics/SVG/1.1/DTD/svg11.dtd"><svg class="icon" width="200px" height="200.00px" viewBox="0 0 1024 1024" version="1.1" xmlns="http://www.w3.org/2000/svg"><path d="M804.409923 938.808652H218.719407a42.595674 42.595674 0 0 0 0 85.191348h585.690516a42.595674 42.595674 0 0 0 0-85.191348zM481.108758 775.241265a42.595674 42.595674 0 0 0 60.485857 0l292.63228-292.63228a42.595674 42.595674 0 0 0 0-60.485857 42.595674 42.595674 0 0 0-60.0599 0l-220.219634 218.515807v-596.339434a42.595674 42.595674 0 1 0-85.191348 0v596.339434L248.536379 420.419301a42.595674 42.595674 0 0 0-60.0599 0 42.595674 42.595674 0 0 0 0 60.485857z" fill="#333333" /></svg>