<?xml version="1.0" standalone="no"?><!DOCTYPE svg PUBLIC "-//W3C//DTD SVG 1.1//EN" "http://www.w3.org/Graphics/SVG/1.1/DTD/svg11.dtd"><svg class="icon" width="200px" height="170.81px" viewBox="0 0 1199 1024" version="1.1" xmlns="http://www.w3.org/2000/svg"><path d="M1106.756469 98.710712l-8.475163-8.475162a310.589766 310.589766 0 0 0-436.72012 0l-62.815907 62.815908-62.815908-61.81883a309.592688 309.592688 0 0 0-436.72012 0L90.734089 99.70779a309.094149 309.094149 0 0 0 0 437.218659l472.614924 472.614924a49.853895 49.853895 0 0 0 35.396266 14.45763 49.853895 49.853895 0 0 0 34.897726-14.45763v-2.492694h2.991234l468.128074-468.128074a309.094149 309.094149 0 0 0 1.994156-440.209893z m-70.293992 366.426128l-437.717198 437.717198-437.717198-437.717198a208.88782 208.88782 0 0 1 0-295.633597l8.475162-8.475162a209.386359 209.386359 0 0 1 296.132136 0l93.725323 93.725322a49.853895 49.853895 0 0 0 61.320291 5.982468 46.364122 46.364122 0 0 0 23.929869-12.463474l86.247238-87.244316a209.884898 209.884898 0 0 1 295.633598 0l8.973701 8.475162a209.884898 209.884898 0 0 1 0.997078 295.633597z" fill="#333333" /></svg>