<?xml version="1.0" standalone="no"?><!DOCTYPE svg PUBLIC "-//W3C//DTD SVG 1.1//EN" "http://www.w3.org/Graphics/SVG/1.1/DTD/svg11.dtd"><svg class="icon" width="200px" height="158.39px" viewBox="0 0 1293 1024" version="1.1" xmlns="http://www.w3.org/2000/svg"><path d="M1208.319364 19.941581a53.894708 53.894708 0 0 0-42.037873-19.941042H127.191512a53.894708 53.894708 0 0 0-42.037873 19.941042A161.684125 161.684125 0 0 0 0 161.684664v700.631211a161.684125 161.684125 0 0 0 161.684125 161.684125h970.104753a161.684125 161.684125 0 0 0 161.684125-161.684125V161.684664A161.684125 161.684125 0 0 0 1208.319364 19.941581zM1029.388932 107.789956L646.736502 465.111873 263.545124 107.789956zM1185.683586 862.315875a53.894708 53.894708 0 0 1-53.894708 53.894708H161.684125a53.894708 53.894708 0 0 1-53.894708-53.894708V161.684664a53.894708 53.894708 0 0 1 15.629465-37.726296l485.052377 454.332393a53.894708 53.894708 0 0 0 36.648401 14.551571 53.894708 53.894708 0 0 0 36.648402-14.551571l485.052377-454.332393a53.894708 53.894708 0 0 1 15.629465 37.726296z" fill="#333333" /></svg>