<?xml version="1.0" standalone="no"?><!DOCTYPE svg PUBLIC "-//W3C//DTD SVG 1.1//EN" "http://www.w3.org/Graphics/SVG/1.1/DTD/svg11.dtd"><svg class="icon" width="200px" height="183.35px" viewBox="0 0 1117 1024" version="1.1" xmlns="http://www.w3.org/2000/svg"><path d="M636.738924 5.119977a46.545243 46.545243 0 0 0-48.872505 4.654524L293.700483 232.726215H141.497539a139.635729 139.635729 0 0 0-139.635729 139.635729v279.271458a139.635729 139.635729 0 0 0 139.635729 139.635729h152.202944l294.165936 223.417166a46.545243 46.545243 0 0 0 27.927146 9.309048 46.545243 46.545243 0 0 0 20.945359-4.654524 46.545243 46.545243 0 0 0 25.599884-41.890719V46.545243a46.545243 46.545243 0 0 0-25.599884-41.425266z m-67.490602 878.774187l-232.726215-175.941018a46.545243 46.545243 0 0 0-28.392598-8.843596h-167.562875a46.545243 46.545243 0 0 1-46.545243-46.545243v-279.271458a46.545243 46.545243 0 0 1 46.545243-46.545243h167.562875a46.545243 46.545243 0 0 0 28.392598-8.843596l232.726215-175.941019zM909.028595 144.755706a46.545243 46.545243 0 0 0-58.181553 30.71986 46.545243 46.545243 0 0 0 30.254408 58.181554c81.454175 25.599884 142.893896 146.152063 142.893895 279.271458s-57.250649 247.15524-136.377561 279.271457a46.545243 46.545243 0 0 0 16.756287 90.297772 42.821624 42.821624 0 0 0 16.756287-3.258167c115.432203-46.545243 195.955473-194.093663 195.955473-364.449253 0-179.664638-85.643247-331.40213-208.057236-370.034681z" fill="#333333" /><path d="M930.90486 512.928578c0-93.090486-46.545243-175.475566-114.966751-196.886378a46.545243 46.545243 0 0 0-58.181553 30.71986 46.545243 46.545243 0 0 0 30.254408 58.181554A114.96675 114.96675 0 0 1 837.814374 512.928578a116.82856 116.82856 0 0 1-46.545243 107.054058 46.545243 46.545243 0 0 0 16.290835 90.297772 51.199767 51.199767 0 0 0 16.756287-3.258167A200.609997 200.609997 0 0 0 930.90486 512.928578z" fill="#333333" /></svg>