<?xml version="1.0" standalone="no"?><!DOCTYPE svg PUBLIC "-//W3C//DTD SVG 1.1//EN" "http://www.w3.org/Graphics/SVG/1.1/DTD/svg11.dtd"><svg class="icon" width="200px" height="200.00px" viewBox="0 0 1024 1024" version="1.1" xmlns="http://www.w3.org/2000/svg"><path d="M512.008507 0a507.947006 507.947006 0 0 0 0 1015.894012 499.481223 499.481223 0 0 0 55.874171-2.963024 42.582891 42.582891 0 1 0-9.312362-84.657834 423.289172 423.289172 0 1 1 364.028688-317.466879 42.328917 42.328917 0 0 0 30.47682 51.21799 42.328917 42.328917 0 0 0 51.641279-30.90011A507.947006 507.947006 0 0 0 512.008507 0z" fill="#333333" /><path d="M512.008507 338.631337a169.315669 169.315669 0 1 0 169.315669 169.315669 169.315669 169.315669 0 0 0-169.315669-169.315669z m0 253.973504a84.657834 84.657834 0 1 1 84.657835-84.657835 84.657834 84.657834 0 0 1-84.657835 84.657835zM850.639845 562.551309a42.328917 42.328917 0 0 0-42.328917 42.328918v191.326705h-7.195916a137.568981 137.568981 0 0 0-89.314016 17.778145 140.955294 140.955294 0 0 0-60.107062 68.572846 104.129136 104.129136 0 0 0 5.502759 90.583883 107.09216 107.09216 0 0 0 94.816775 50.794701 145.188186 145.188186 0 0 0 70.266002-19.048013 139.262138 139.262138 0 0 0 57.990617-65.609822 42.328917 42.328917 0 0 0 12.698675-30.47682v-303.921625a42.328917 42.328917 0 0 0-42.328917-42.328918z m-72.805738 367.415001c-20.741169 11.852097-42.328917 9.312362-49.101544 0a20.31788 20.31788 0 0 1 0-17.354856 51.21799 51.21799 0 0 1 23.704194-25.820639 52.911146 52.911146 0 0 1 27.937085-8.042494h5.926049a20.31788 20.31788 0 0 1 15.23841 8.465783c6.772627 9.735651-2.539735 30.47682-23.704194 42.752206z" fill="#333333" /></svg>