<?xml version="1.0" standalone="no"?><!DOCTYPE svg PUBLIC "-//W3C//DTD SVG 1.1//EN" "http://www.w3.org/Graphics/SVG/1.1/DTD/svg11.dtd"><svg class="icon" width="200px" height="156.69px" viewBox="0 0 1307 1024" version="1.1" xmlns="http://www.w3.org/2000/svg"><path d="M690.598633 1010.036364l198.283636-186.181819a46.545455 46.545455 0 0 0-64.232727-67.490909l-120.552727 114.967273v-348.625454a46.545455 46.545455 0 0 0-93.09091 0v346.298181l-120.087272-114.967272a46.545455 46.545455 0 0 0-66.094546 0 46.545455 46.545455 0 0 0 0 65.629091l198.749091 189.44 6.981818 4.654545a32.116364 32.116364 0 0 0 7.912728 4.654545 46.545455 46.545455 0 0 0 17.221818 3.723637 46.545455 46.545455 0 0 0 17.687273-3.723637 31.185455 31.185455 0 0 0 8.378181-5.12 46.545455 46.545455 0 0 0 6.050909-4.18909z" fill="#333333" /><path d="M989.885905 343.04a262.050909 262.050909 0 0 0 0-27.461818 335.127273 335.127273 0 0 0-668.858181 0 262.981818 262.981818 0 0 0 0 27.461818 315.578182 315.578182 0 1 0 18.152727 630.225455h43.287273a46.545455 46.545455 0 0 0 40.494545-52.13091 46.545455 46.545455 0 0 0-51.665454-40.494545 238.312727 238.312727 0 0 1-32.116364 0 223.418182 223.418182 0 1 1 0-444.974545 256.930909 256.930909 0 0 1 33.047273 0h5.12a46.545455 46.545455 0 0 0 46.545454-40.029091 46.545455 46.545455 0 0 0-3.258182-21.876364 201.076364 201.076364 0 0 1-8.843636-59.578182 242.036364 242.036364 0 0 1 482.676364 0 202.938182 202.938182 0 0 1-9.774546 62.370909 22.807273 22.807273 0 0 0 0 5.585455 57.716364 57.716364 0 0 0 0 7.447273 49.803636 49.803636 0 0 0 2.792727 12.567272v4.189091a46.545455 46.545455 0 0 0 28.392728 26.530909 46.545455 46.545455 0 0 0 13.963636 0 52.596364 52.596364 0 0 0 8.378182 0h29.789091a223.418182 223.418182 0 1 1 0 444.974546 247.621818 247.621818 0 0 1-32.116364 0 46.871273 46.871273 0 0 0-11.170909 93.090909h43.287273a315.578182 315.578182 0 1 0 18.152727-630.225455z" fill="#333333" /></svg>