<?xml version="1.0" standalone="no"?><!DOCTYPE svg PUBLIC "-//W3C//DTD SVG 1.1//EN" "http://www.w3.org/Graphics/SVG/1.1/DTD/svg11.dtd"><svg class="icon" width="200px" height="200.00px" viewBox="0 0 1024 1024" version="1.1" xmlns="http://www.w3.org/2000/svg"><path d="M511.07078 0a511.07078 511.07078 0 1 0 511.070781 511.07078 511.07078 511.07078 0 0 0-511.070781-511.07078z m0 929.219601a418.14882 418.14882 0 1 1 418.148821-418.148821 418.14882 418.14882 0 0 1-418.148821 418.148821z" fill="#333333" /><path d="M722.46824 472.972777l-278.765881-161.219601a46.46098 46.46098 0 0 0-46.46098 0 46.46098 46.46098 0 0 0-23.23049 40.421053v321.974591a46.46098 46.46098 0 0 0 46.46098 46.46098 46.46098 46.46098 0 0 0 23.23049-6.504537l278.765881-160.754991a46.46098 46.46098 0 0 0 0-80.377495z m-255.535391 120.798548V432.551724l139.38294 80.377496z" fill="#333333" /></svg>