<?xml version="1.0" standalone="no"?><!DOCTYPE svg PUBLIC "-//W3C//DTD SVG 1.1//EN" "http://www.w3.org/Graphics/SVG/1.1/DTD/svg11.dtd"><svg class="icon" width="200px" height="200.00px" viewBox="0 0 1024 1024" version="1.1" xmlns="http://www.w3.org/2000/svg"><path d="M512 0a512 512 0 1 0 512 512A512 512 0 0 0 512 0z m0 938.666667a426.666667 426.666667 0 1 1 426.666667-426.666667 426.666667 426.666667 0 0 1-426.666667 426.666667z" fill="#333333" /><path d="M682.666667 469.333333h-128V341.333333a42.666667 42.666667 0 0 0-85.333334 0v128H341.333333a42.666667 42.666667 0 0 0 0 85.333334h128v128a42.666667 42.666667 0 0 0 85.333334 0v-128h128a42.666667 42.666667 0 0 0 0-85.333334z" fill="#333333" /></svg>