<?xml version="1.0" standalone="no"?><!DOCTYPE svg PUBLIC "-//W3C//DTD SVG 1.1//EN" "http://www.w3.org/Graphics/SVG/1.1/DTD/svg11.dtd"><svg class="icon" width="200px" height="200.00px" viewBox="0 0 1024 1024" version="1.1" xmlns="http://www.w3.org/2000/svg"><path d="M1021.838046 513.091004a510.908996 510.908996 0 1 0-846.405904 383.181747l4.683333 4.257575a510.908996 510.908996 0 0 0 662.052907 0l3.831818-3.831818A508.354451 508.354451 0 0 0 1021.838046 513.091004zM85.171553 513.091004a425.757497 425.757497 0 1 1 746.352892 279.722675 366.577205 366.577205 0 0 0-221.819656-180.095421 191.590874 191.590874 0 1 0-197.551479 0 366.577205 366.577205 0 0 0-221.819656 180.095421A425.757497 425.757497 0 0 1 85.171553 513.091004z m425.757497 42.575749a106.439374 106.439374 0 1 1 106.439374-106.439374A106.439374 106.439374 0 0 1 510.92905 555.666753z m-255.454498 298.030248a275.465101 275.465101 0 0 1 510.908996 0 423.202952 423.202952 0 0 1-510.908996 0z" fill="#333333" /></svg>