<?xml version="1.0" standalone="no"?><!DOCTYPE svg PUBLIC "-//W3C//DTD SVG 1.1//EN" "http://www.w3.org/Graphics/SVG/1.1/DTD/svg11.dtd"><svg class="icon" width="200px" height="199.80px" viewBox="0 0 1025 1024" version="1.1" xmlns="http://www.w3.org/2000/svg"><path d="M512 0a512 512 0 1 0 512 512 512 512 0 0 0-512-512z m0 938.666667a426.666667 426.666667 0 1 1 426.666667-426.666667 426.666667 426.666667 0 0 1-426.666667 426.666667z" fill="#333333" /><path d="M682.666667 470.186667a42.666667 42.666667 0 1 0 0-85.333334h-92.586667l62.293333-107.946666a42.666667 42.666667 0 0 0-15.36-58.453334 42.666667 42.666667 0 0 0-58.453333 15.786667l-66.56 112.213333-64.426667-112.213333a42.794667 42.794667 0 1 0-74.24 42.666667l62.293334 107.946666H341.333333a42.666667 42.666667 0 0 0 0 85.333334h128v85.333333h-128a42.666667 42.666667 0 0 0 0 85.333333h128v128a42.666667 42.666667 0 0 0 85.333334 0v-128h128a42.666667 42.666667 0 1 0 0-85.333333h-128v-85.333333z" fill="#333333" /></svg>